<?xml version="1.0" encoding="utf-8"?>
<!-- Generator: Adobe Illustrator 21.1.0, SVG Export Plug-In . SVG Version: 6.00 Build 0)  -->
<svg version="1.1" id="Layer_1" xmlns="http://www.w3.org/2000/svg" xmlns:xlink="http://www.w3.org/1999/xlink" x="0px" y="0px"
	 viewBox="0 0 43.2 44.4" style="enable-background:new 0 0 43.2 44.4;" xml:space="preserve">
<style type="text/css">
	.st0{fill:#FFFFFF;}
</style>
<path class="st0" d="M23.2,39.3h-4.8c-1.1,0-2-0.9-2-2V7.1c0-1.1,0.9-2,2-2h4.8c1.1,0,2,0.9,2,2v30.2C25.2,38.4,24.3,39.3,23.2,39.3
	z"/>
<path class="st0" d="M3.8,24.6v-4.8c0-1.1,0.9-2,2-2H36c1.1,0,2,0.9,2,2v4.8c0,1.1-0.9,2-2,2H5.7C4.7,26.6,3.8,25.7,3.8,24.6z"/>
</svg>
