<?xml version="1.0" encoding="utf-8"?>
<!-- Generator: Adobe Illustrator 21.1.0, SVG Export Plug-In . SVG Version: 6.00 Build 0)  -->
<svg version="1.1" id="Layer_1" xmlns="http://www.w3.org/2000/svg" xmlns:xlink="http://www.w3.org/1999/xlink" x="0px" y="0px"
	 viewBox="0 0 40 20" style="enable-background:new 0 0 40 20;" xml:space="preserve">
<style type="text/css">
	.st0{fill:#555555;}
	.st1{fill:url(#SVGID_1_);}
	.st2{fill:url(#SVGID_2_);}
	.st3{fill:url(#SVGID_3_);}
	.st4{fill:url(#SVGID_4_);}
	.st5{fill:url(#SVGID_5_);}
	.st6{fill:url(#SVGID_6_);}
</style>
<g>
	<path d="M12,4.4l-1.1-1.3c0,0,0,0,0,0c-0.5-0.5-1.2-0.8-2-0.8C7.3,2.2,6,3.5,6,5c0,0.6,0.2,1.2,0.6,1.7c0,0,0,0,0,0l0.1,0.1
		C6.8,6.9,6.9,7,6.9,7.1l0.5,0.5l1.1,0.9c0.3,0.1,0.7,0.2,1.1,0.2c1.6,0,2.8-1.3,2.8-2.8C12.4,5.3,12.2,4.8,12,4.4z"/>
	<circle cx="9.8" cy="6.1" r="2.7"/>
	<path class="st0" d="M10.9,3.2c-0.4-0.3-0.7,0-1.3,0c-1.5,0-2.7,1.2-2.7,2.7c0,0.4-0.3,0.5-0.1,0.8l0.8,0.8l1,0.9
		c0.3,0.1,0.7,0.2,1.1,0.2c1.5,0,2.7-1.2,2.7-2.7c0-0.5-0.2-1-0.4-1.4L10.9,3.2z"/>
	<linearGradient id="SVGID_1_" gradientUnits="userSpaceOnUse" x1="6.984" y1="3.1741" x2="10.8526" y2="7.0427">
		<stop  offset="0" style="stop-color:#FFFFFF"/>
		<stop  offset="1" style="stop-color:#797A7D"/>
	</linearGradient>
	<circle class="st1" cx="8.9" cy="5.1" r="2.7"/>
</g>
<g>
	<path d="M12,14.2l-1.1-1.3c0,0,0,0,0,0c-0.5-0.5-1.2-0.8-2-0.8C7.3,12,6,13.3,6,14.8c0,0.6,0.2,1.2,0.6,1.7c0,0,0,0,0,0l0.1,0.1
		c0.1,0.1,0.1,0.1,0.2,0.2l0.5,0.5l1.1,0.9c0.3,0.1,0.7,0.2,1.1,0.2c1.6,0,2.8-1.3,2.8-2.8C12.4,15.1,12.2,14.6,12,14.2z"/>
	<circle cx="9.8" cy="15.9" r="2.7"/>
	<path class="st0" d="M10.9,13c-0.4-0.3-0.7,0-1.3,0c-1.5,0-2.7,1.2-2.7,2.7c0,0.4-0.3,0.5-0.1,0.8l0.8,0.8l1,0.9
		c0.3,0.1,0.7,0.2,1.1,0.2c1.5,0,2.7-1.2,2.7-2.7c0-0.5-0.2-1-0.4-1.4L10.9,13z"/>
	<linearGradient id="SVGID_2_" gradientUnits="userSpaceOnUse" x1="6.984" y1="12.9877" x2="10.8526" y2="16.8563">
		<stop  offset="0" style="stop-color:#FFFFFF"/>
		<stop  offset="1" style="stop-color:#797A7D"/>
	</linearGradient>
	<circle class="st2" cx="8.9" cy="14.9" r="2.7"/>
</g>
<g>
	<path d="M21.6,4.4l-1.1-1.3c0,0,0,0,0,0c-0.5-0.5-1.2-0.8-2-0.8c-1.6,0-2.8,1.3-2.8,2.8c0,0.6,0.2,1.2,0.6,1.7c0,0,0,0,0,0l0.1,0.1
		c0.1,0.1,0.1,0.1,0.2,0.2L17,7.6l1.1,0.9c0.3,0.1,0.7,0.2,1.1,0.2c1.6,0,2.8-1.3,2.8-2.8C22,5.3,21.8,4.8,21.6,4.4z"/>
	<circle cx="19.4" cy="6.1" r="2.7"/>
	<path class="st0" d="M20.5,3.2c-0.4-0.3-0.7,0-1.3,0c-1.5,0-2.7,1.2-2.7,2.7c0,0.4-0.3,0.5-0.1,0.8l0.8,0.8l1,0.9
		c0.3,0.1,0.7,0.2,1.1,0.2c1.5,0,2.7-1.2,2.7-2.7c0-0.5-0.2-1-0.4-1.4L20.5,3.2z"/>
	<linearGradient id="SVGID_3_" gradientUnits="userSpaceOnUse" x1="16.5762" y1="3.1741" x2="20.4448" y2="7.0427">
		<stop  offset="0" style="stop-color:#FFFFFF"/>
		<stop  offset="1" style="stop-color:#797A7D"/>
	</linearGradient>
	<circle class="st3" cx="18.5" cy="5.1" r="2.7"/>
</g>
<g>
	<path d="M21.6,14.2l-1.1-1.3c0,0,0,0,0,0c-0.5-0.5-1.2-0.8-2-0.8c-1.6,0-2.8,1.3-2.8,2.8c0,0.6,0.2,1.2,0.6,1.7c0,0,0,0,0,0
		l0.1,0.1c0.1,0.1,0.1,0.1,0.2,0.2l0.5,0.5l1.1,0.9c0.3,0.1,0.7,0.2,1.1,0.2c1.6,0,2.8-1.3,2.8-2.8C22,15.1,21.8,14.6,21.6,14.2z"/>
	<circle cx="19.4" cy="15.9" r="2.7"/>
	<path class="st0" d="M20.5,13c-0.4-0.3-0.7,0-1.3,0c-1.5,0-2.7,1.2-2.7,2.7c0,0.4-0.3,0.5-0.1,0.8l0.8,0.8l1,0.9
		c0.3,0.1,0.7,0.2,1.1,0.2c1.5,0,2.7-1.2,2.7-2.7c0-0.5-0.2-1-0.4-1.4L20.5,13z"/>
	<linearGradient id="SVGID_4_" gradientUnits="userSpaceOnUse" x1="16.5762" y1="12.9877" x2="20.4448" y2="16.8563">
		<stop  offset="0" style="stop-color:#FFFFFF"/>
		<stop  offset="1" style="stop-color:#797A7D"/>
	</linearGradient>
	<circle class="st4" cx="18.5" cy="14.9" r="2.7"/>
</g>
<g>
	<path d="M31.3,4.4l-1.1-1.3c0,0,0,0,0,0c-0.5-0.5-1.2-0.8-2-0.8c-1.6,0-2.8,1.3-2.8,2.8c0,0.6,0.2,1.2,0.6,1.7c0,0,0,0,0,0l0.1,0.1
		c0.1,0.1,0.1,0.1,0.2,0.2l0.5,0.5l1.1,0.9c0.3,0.1,0.7,0.2,1.1,0.2c1.6,0,2.8-1.3,2.8-2.8C31.7,5.3,31.6,4.8,31.3,4.4z"/>
	<circle cx="29.1" cy="6.1" r="2.7"/>
	<path class="st0" d="M30.2,3.2c-0.4-0.3-0.7,0-1.3,0c-1.5,0-2.7,1.2-2.7,2.7c0,0.4-0.3,0.5-0.1,0.8l0.8,0.8l1,0.9
		c0.3,0.1,0.7,0.2,1.1,0.2c1.5,0,2.7-1.2,2.7-2.7c0-0.5-0.2-1-0.4-1.4L30.2,3.2z"/>
	<linearGradient id="SVGID_5_" gradientUnits="userSpaceOnUse" x1="26.3191" y1="3.1741" x2="30.1876" y2="7.0427">
		<stop  offset="0" style="stop-color:#FFFFFF"/>
		<stop  offset="1" style="stop-color:#797A7D"/>
	</linearGradient>
	<circle class="st5" cx="28.3" cy="5.1" r="2.7"/>
</g>
<g>
	<path d="M31.3,14.2l-1.1-1.3c0,0,0,0,0,0c-0.5-0.5-1.2-0.8-2-0.8c-1.6,0-2.8,1.3-2.8,2.8c0,0.6,0.2,1.2,0.6,1.7c0,0,0,0,0,0
		l0.1,0.1c0.1,0.1,0.1,0.1,0.2,0.2l0.5,0.5l1.1,0.9c0.3,0.1,0.7,0.2,1.1,0.2c1.6,0,2.8-1.3,2.8-2.8C31.7,15.1,31.6,14.6,31.3,14.2z"
		/>
	<circle cx="29.1" cy="15.9" r="2.7"/>
	<path class="st0" d="M30.2,13c-0.4-0.3-0.7,0-1.3,0c-1.5,0-2.7,1.2-2.7,2.7c0,0.4-0.3,0.5-0.1,0.8l0.8,0.8l1,0.9
		c0.3,0.1,0.7,0.2,1.1,0.2c1.5,0,2.7-1.2,2.7-2.7c0-0.5-0.2-1-0.4-1.4L30.2,13z"/>
	<linearGradient id="SVGID_6_" gradientUnits="userSpaceOnUse" x1="26.3191" y1="12.9877" x2="30.1876" y2="16.8563">
		<stop  offset="0" style="stop-color:#FFFFFF"/>
		<stop  offset="1" style="stop-color:#797A7D"/>
	</linearGradient>
	<circle class="st6" cx="28.3" cy="14.9" r="2.7"/>
</g>
</svg>
