<?xml version="1.0" encoding="utf-8"?>
<!-- Generator: Adobe Illustrator 21.1.0, SVG Export Plug-In . SVG Version: 6.00 Build 0)  -->
<svg version="1.1" id="Layer_1" xmlns="http://www.w3.org/2000/svg" xmlns:xlink="http://www.w3.org/1999/xlink" x="0px" y="0px"
	 viewBox="0 0 50 50" style="enable-background:new 0 0 50 50;" xml:space="preserve">
<style type="text/css">
	.st0{fill:#366fa5;}
	.st1{fill:#366fa5;}
	.st2{fill:#366fa5;}
	.st3{fill:#FFFFFF;}
</style>
<g>
	<path class="st0" d="M36.6,43.9H14.1c-4.2,0-7.6-3.4-7.6-7.6V13.8c0-4.2,3.4-7.6,7.6-7.6h22.5c4.2,0,7.6,3.4,7.6,7.6v22.5
		C44.2,40.5,40.8,43.9,36.6,43.9z"/>
	<path class="st0" d="M38,5.5H12c-3.6,0-6.6,3-6.6,6.6V38c0,3.6,3,6.6,6.6,6.6H38c3.6,0,6.6-3,6.6-6.6V12C44.5,8.4,41.6,5.5,38,5.5z
		 M41.5,36.4c0,2.8-2.3,5.1-5.1,5.1H13.6c-2.8,0-5.1-2.3-5.1-5.1V13.6c0-2.8,2.3-5.1,5.1-5.1h22.7c2.8,0,5.1,2.3,5.1,5.1V36.4z"/>
</g>
<path class="st0" d="M76.4,11.6c0,0,8.3,19.5,9.8,21.5c1.6,2,5.5,4,5.8,3.5c0.3-0.4,16.3-34.6,19.9-35.8c3.5-1.2-4.2-4-8-0.8
	c-3.8,3.1-14.3,26.4-14.3,26.4s-9.1-15.8-12.3-15.8S76.4,11.6,76.4,11.6z"/>
<g>
	<path class="st1" d="M93.7,93h-2.8c-3,0-5.4-2.4-5.4-5.4V65.1c0-3,2.4-5.4,5.4-5.4h2.8c3,0,5.4,2.4,5.4,5.4v22.6
		C99.1,90.6,96.7,93,93.7,93z"/>
	<path class="st1" d="M136.1,85v2.8c0,3-2.4,5.4-5.4,5.4H90.9c-3,0-5.4-2.4-5.4-5.4V85c0-3,2.4-5.4,5.4-5.4h39.8
		C133.6,79.6,136.1,82,136.1,85z"/>
</g>
<g>
	<path class="st2" d="M132.4,53.1l-1.3,2c-1.4,2.1-3.7,2.1-5.1,0l-10.8-16c-1.4-2.1-1.4-5.5,0-7.6l1.3-2c1.4-2.1,3.7-2.1,5.1,0
		l10.8,16C133.8,47.6,133.8,51,132.4,53.1z"/>
	<path class="st2" d="M148.8,17.4l1.3,2c1.4,2.1,1.4,5.5,0,7.6l-19,28.1c-1.4,2.1-3.7,2.1-5.1,0l-1.3-2c-1.4-2.1-1.4-5.5,0-7.6
		l19-28.1C145,15.4,147.4,15.4,148.8,17.4z"/>
</g>
<g>
	<path class="st3" d="M33.9,108.4L33.9,108.4c-1.6,1.6-4.3,1.6-5.9,0L13.2,93.5c-1.6-1.6-1.6-4.3,0-5.9l0,0c1.6-1.6,4.3-1.6,5.9,0
		l14.9,14.9C35.5,104.1,35.5,106.7,33.9,108.4z"/>
	<path class="st3" d="M58.7,77.6L58.7,77.6c1.6,1.6,1.6,4.3,0,5.9l-24.8,24.8c-1.6,1.6-4.3,1.6-5.9,0l0,0c-1.6-1.6-1.6-4.3,0-5.9
		l24.8-24.8C54.5,76,57.1,76,58.7,77.6z"/>
</g>
<g>
	<path class="st3" d="M23.7,36.3L23.7,36.3c-1.2,1.2-3.1,1.2-4.2,0L8.8,25.5c-1.2-1.2-1.2-3.1,0-4.2l0,0c1.2-1.2,3.1-1.2,4.2,0
		L23.7,32C24.9,33.2,24.9,35.1,23.7,36.3z"/>
	<path class="st3" d="M41.6,14.1L41.6,14.1c1.2,1.2,1.2,3.1,0,4.2L23.7,36.3c-1.2,1.2-3.1,1.2-4.2,0l0,0c-1.2-1.2-1.2-3.1,0-4.2
		l17.9-17.9C38.5,12.9,40.5,12.9,41.6,14.1z"/>
</g>
</svg>
