<?xml version="1.0" encoding="utf-8"?>
<!-- Generator: Adobe Illustrator 21.1.0, SVG Export Plug-In . SVG Version: 6.00 Build 0)  -->
<svg version="1.1" id="Layer_1" xmlns="http://www.w3.org/2000/svg" xmlns:xlink="http://www.w3.org/1999/xlink" x="0px" y="0px"
	 viewBox="0 0 100 100" style="enable-background:new 0 0 100 100;" xml:space="preserve">
<style type="text/css">
	.st0{fill:#1AA2DC;}
	.st1{fill:#FFFFFF;stroke:#FFFFFF;stroke-width:1.4252;stroke-miterlimit:10;}
	.st2{fill:#121427;}
	.st3{fill:#74747F;}
</style>
<circle class="st0" cx="50" cy="49.8" r="49.6"/>
<g>
	<path class="st1" d="M50.8,34.5c0,0,5.4-6.8,13-7.1c7.6-0.3,10-0.6,10-0.6l8.4,25.7c0,0-11.4-3.2-17.2-1s-14.3,7.7-14.3,7.7
		L50.8,34.5z"/>
	<path class="st1" d="M26.4,26.8c0,0,13.6,0.9,15.3,1.6c1.7,0.7,5.9,1.9,7,5.6l0.1,25c0,0-11.8-7.8-18.7-8.2
		c-7.5-0.4-12.9,1.7-12.9,1.7L26.4,26.8z"/>
	<path class="st2" d="M94.7,59.6l-9-25.5c0,0,0.3-1.3-2.2-1.2l-2,0.1l-0.9-2.1c0,0-0.3-1-1.6-1.2c-1.3-0.2-2.4-0.1-2.4-0.1l-1.1-3.7
		c0,0,0.3-1.6-1.8-1.4C71.6,24.7,58.2,23,50,32c0,0-2.6-5.6-11-6.3c-8.4-0.7-12.2-1-12.2-1s-1.9-0.6-2.3,1.3c-0.4,1.9-1,3.4-1,3.4
		L21,29.7c0,0-1.3-0.1-1.7,2.1C19,34.1,18.8,33,18.8,33l-2.3,0.1c0,0-1.8-0.9-2.4,0.8c-0.6,1.8-7.5,21.5-7.5,21.5l-2.1,4.8l-0.2,2.8
		c0,0-0.4,1.5,2.2,1.4s39.2-0.2,39.2-0.2s0.4,2.1,3.5,2.1s4.3-2.2,4.3-2.2h40.7c0,0,0.8-0.4,0.8-2.1C95,60.5,94.7,59.6,94.7,59.6z
		 M30.1,50.8c-7.5-0.4-12.9,1.7-12.9,1.7l9.1-25.7c0,0,13.6,0.9,15.3,1.6c1.7,0.7,5.9,1.9,7,5.6l0.1,25C48.8,59,37.1,51.2,30.1,50.8
		z M65,51.5c-5.9,2.2-14.3,7.7-14.3,7.7l0-24.7c0,0,5.4-6.8,13-7.1c7.6-0.3,10-0.6,10-0.6l8.4,25.7C82.3,52.5,70.9,49.3,65,51.5z"/>
	<path class="st3" d="M77.6,31.7l1.7,0.2l8.2,24.7c0,0-16-1.2-18.8-1c-2.9,0.2-11.8,1.9-11.8,1.9s8-5.1,16.3-4.5
		c8.2,0.6,10.9,2.2,10.9,2.2s1.2-0.1,0.7-1.9S79.1,37,79.1,37L77.6,31.7z"/>
	<path class="st3" d="M22.6,31.8L14.6,54c0,0,0,1.8,1.8,1s12.1-3,17.1-1.7c4.2,1.1,9.4,4.3,9.4,4.3s-9.7-2.5-16.3-1.9
		c-6.6,0.6-14.6,1-14.6,1L18,40.9l3.5-9L22.6,31.8z"/>
	<path class="st3" d="M17.9,35.2L9.8,56.8c0,0-1.2,2.4,1.2,2.2c2.4-0.2,14.7-1.7,19.2-1.3s13.1,2.5,13.1,2.5l-36.6,0l9.5-25.2
		L17.9,35.2z"/>
	<path class="st3" d="M56.1,60.1l36.7,0.2L84.1,35l-2,0l7.6,22.1c0,0,0.8,2-1.1,1.9s-12.9-1.5-19-1.2C64.1,57.9,56.1,60.1,56.1,60.1
		z"/>
</g>
</svg>
