<?xml version="1.0" encoding="utf-8"?>
<!-- Generator: Adobe Illustrator 21.1.0, SVG Export Plug-In . SVG Version: 6.00 Build 0)  -->
<svg version="1.1" id="Layer_1" xmlns="http://www.w3.org/2000/svg" xmlns:xlink="http://www.w3.org/1999/xlink" x="0px" y="0px"
	 viewBox="0 0 100 100" style="enable-background:new 0 0 100 100;" xml:space="preserve">
<style type="text/css">
	.st0{fill:#6D6E71;}
	.st1{fill:#939598;}
	.st2{fill:#2CC1D7;}
	.st3{fill:#FFFFFF;}
</style>
<path class="st0" d="M37.4,19.6c-19.7,0-35.7,12.6-35.7,28.1c0,8.1,4.4,15.5,11.4,20.6C13.8,78.2,2.4,82,2.4,82L3,82.6
	c8.8,0.6,20.8-4.7,25-7.8c3,0.6,6.2,1,9.4,1c19.7,0,35.7-12.6,35.7-28.1S57.1,19.6,37.4,19.6z"/>
<path class="st1" d="M71.7,1.9c14.5,0,26.2,9.2,26.2,20.6c0,6-3.2,11.3-8.4,15.1c-0.5,7.2,9.6,9.3,9.6,9.3l-0.9,0.7
	c-6.5,0.4-16.5-3-19.6-5.2c-2.2,0.5-4.5,0.7-6.9,0.7c-14.5,0-26.2-9.2-26.2-20.6S57.3,1.9,71.7,1.9z"/>
<g>
	<path class="st2" d="M65.1,51c14.9,0,27.1,9.5,27.1,21.3c0,6.2-3.3,11.7-8.6,15.6c-0.6,7.5,9.9,9.6,9.9,9.6l-0.9,0.7
		c-6.7,0.4-17.1-3.1-20.3-5.4c-2.3,0.5-4.7,0.8-7.1,0.8c-14.9,0-27.1-9.5-27.1-21.3S50.2,51,65.1,51z"/>
	<g>
		<circle class="st3" cx="53.9" cy="73.8" r="4"/>
		<circle class="st3" cx="65.8" cy="73.8" r="4"/>
		<circle class="st3" cx="77.7" cy="73.8" r="4"/>
	</g>
</g>
</svg>
