<?xml version="1.0" encoding="utf-8"?>
<!-- Generator: Adobe Illustrator 21.1.0, SVG Export Plug-In . SVG Version: 6.00 Build 0)  -->
<svg version="1.1" id="Layer_1" xmlns="http://www.w3.org/2000/svg" xmlns:xlink="http://www.w3.org/1999/xlink" x="0px" y="0px"
	 viewBox="0 0 90.7 81.7" style="enable-background:new 0 0 90.7 81.7;" xml:space="preserve">
<style type="text/css">
	.st0{fill:#939598;}
</style>
<path class="st0" d="M70.4,5.3H23.6C16,5.3,9.7,11.5,9.7,19.2v24.2c0,7.6,6.3,13.9,13.9,13.9l5.2,0c3.9,0,6.3,4.4,4.1,7.6
	c-1.7,2.4-4.5,5-9.3,7.7c-5.8,3.2,1.7,2,3.4,1.7c0.2,0,0.4-0.1,0.7-0.1c1.5-0.1,8.1-0.8,18.4-8.6c2.1-1.6,4.9-4.1,6.7-6.2
	c0.9-1.1,2.3-1.8,3.8-1.8l18.8-0.2c5,0,9-4.1,9-9V19.2C84.3,11.5,78.1,5.3,70.4,5.3z"/>
</svg>
