<?xml version="1.0" encoding="utf-8"?>
<!-- Generator: Adobe Illustrator 21.1.0, SVG Export Plug-In . SVG Version: 6.00 Build 0)  -->
<svg version="1.1" id="Layer_1" xmlns="http://www.w3.org/2000/svg" xmlns:xlink="http://www.w3.org/1999/xlink" x="0px" y="0px"
	 viewBox="0 0 100 100" style="enable-background:new 0 0 100 100;" xml:space="preserve">
<style type="text/css">
	.st0{fill:#3E62AD;}
	.st1{fill:#FFFFFF;}
	.st2{fill:none;stroke:#3E62AD;stroke-miterlimit:10;}
	.st3{fill:#585B5C;}
</style>
<circle class="st0" cx="218" cy="-22.1" r="42"/>
<circle class="st1" cx="217.5" cy="-22.1" r="37.1"/>
<g id="ZMygXn_1_">
	
		<image style="overflow:visible;" width="736" height="1012" id="ZMygXn_2_" xlink:href="2534AB125D6D64F7.png"  transform="matrix(0.2295 0 0 0.2295 97.6283 51.666)">
	</image>
</g>
<path class="st2" d="M-90.8,93.9c0,0-1-19.8,3-24.6s15.6-10.4,18.2-11s4-10.3,3.6-10.7c-0.4-0.3-4.4,1.4-7.4,0.9
	c-2.9-0.5-7.6-10.1-7.2-14.4c0.4-4.3-1.6-18.3,18.1-21s20.3,9.9,20.4,13.5S-49,42.8-53.9,45.5c-4.9,2.7,4.7,12.4,10.4,13.8
	s23.4,6.3,26.9,14.6"/>
<path class="st0" d="M195.1,11.7c0,0,8.6-3.1,15.6-8.4c0.5-0.4,1.2-5-0.8-7.5c0,0-4.7,1.1-5.9,0.2c-1.2-0.9-3.4-6.1-4.6-7
	c-1.2-0.9-3.7-5-2.1-12.2c0,0-0.6-4.8-1.4-7.5c-0.7-2.7,1.3-11,6.9-14.6c5.6-3.5,13.8-4.7,20.8-1c7.1,3.7,8.8,9.8,8.8,12
	c0,2.2,0.7,7.4-0.7,10.1c0,0,0.6,2.8,0.1,4.2c-0.5,1.5-3.4,5-5.7,5c0,0-0.7,4.5-0.7,5.7s2.6,9.3,3.7,9.6c1.1,0.4,4.4,2,6.8,2.5
	c6.2,1.3,13.7,1.3,12.8,1.1c0,0,8-5.9,4.5-4.8S234-0.7,232.7-2.2c-0.9-0.9-3.7-5-3.7-7.5s1.6-3.6,1.6-3.6s3.5-1.6,4.3-3.9
	s1.4-7.6,1.4-7.6s2.1-3,0.9-10.1s-6.5-13.2-11.7-15.5c-6.1-2.6-17.2-3.3-24.3,1.8c-5.3,3.8-10.3,12-9.3,17s2,7.8,2,7.8l-0.9,6.8
	c0,0,1.5,5.4,2.6,6.5c1,1,3.8,6.1,4.3,7.1c0.5,1,2.5,2.9,3.4,2.9s3-0.2,3-0.2s0.3,1.3-0.7,2.6s-9.8,5-13.2,5.4
	C188.9,7.8,195.1,11.7,195.1,11.7z"/>
<path class="st3" d="M50,6.7C26.1,6.7,6.7,26.1,6.7,50c0,23.9,19.4,43.3,43.3,43.3S93.3,73.9,93.3,50C93.3,26.1,73.9,6.7,50,6.7z
	 M50,85.6c-19.7,0-35.6-16-35.6-35.6s16-35.6,35.6-35.6s35.6,16,35.6,35.6S69.7,85.6,50,85.6z"/>
<path class="st3" d="M85.4,70.2c-0.6,0.2-1.4,0.3-2.4,0.4c1-1.2,2.8-2.9,1.4-2.5c-3.1,1-17.2,1.7-18.4,0.4c-0.3-0.3-2.6-3.5-2.6-4.6
	c0-2.4,0.6-3.7,0.6-3.7s4.4-1.8,5.1-4.1s1.4-7.7,1.4-7.7s1.6-3.1,0.4-9.9S64.3,25.3,59.2,23c-5.9-2.6-18.3-2.6-25.2,2.4
	c-5.1,3.7-10.1,11.5-9.1,16.4s1.7,7.5,1.7,7.5L26.2,56c0,0,2.1,5.1,3.2,6.2c1,1,3.2,6.3,3.6,7.3s2.3,2.8,3.2,2.8c0.8,0,2.4,0,2.4,0
	s0.2,0.2,0.1,0.6c-2.3,1.3-8.9,3.7-11.5,4c-1,0.1-0.9,0.7-0.3,1.5c-0.8,0.2-1.4,0.3-2,0.4c-3.3,0.4,4.5,5.5,4.5,5.5
	s10.1-2.7,16.8-7.9c0.2-0.1,2.4-6.6-0.2-10.1c0,0-5.8,1.6-6.9,0.8c-1-0.8-3.3-6.6-4.4-7.4c-1.1-0.8-2.3-5.4-1.3-9.8
	c0,0-0.2-3.6-0.8-6c-0.7-2.4,0.2-8.8,5.3-12c5.1-3.2,12.3-5.1,18.7-1.8c6.4,3.3,8.1,7.8,8.1,9.8c0,2,0.7,6.6-0.7,9.1
	c0,0,0.5,2.5,0.1,3.8c-0.4,1.3-3.9,5.4-6,5.4c0,0-0.6,4.9-0.6,6c0,0.2,0.1,0.4,0.2,0.7c0,0.1,0,0.1,0,0.2c0,1.2,3.3,7.6,4.4,8
	c1.1,0.4,4.6,2.1,7,2.6c6,1.3,13,0.5,12.2,0.3C81.3,75.9,88.8,69.1,85.4,70.2z"/>
</svg>
