<?xml version="1.0" encoding="utf-8"?>
<!-- Generator: Adobe Illustrator 21.1.0, SVG Export Plug-In . SVG Version: 6.00 Build 0)  -->
<svg version="1.1" id="Layer_1" xmlns="http://www.w3.org/2000/svg" xmlns:xlink="http://www.w3.org/1999/xlink" x="0px" y="0px"
	 viewBox="0 0 50 50" style="enable-background:new 0 0 50 50;" xml:space="preserve">
<style type="text/css">
	.st0{fill:#FFFFFF;}
	.st1{fill:#939598;}
</style>
<g id="OPzhE7_1_">
	
		<image style="overflow:visible;" width="512" height="512" id="OPzhE7_2_" xlink:href="C7AA77CD81361901.png"  transform="matrix(0.2675 0 0 0.2675 211.5808 -116.1637)">
	</image>
</g>
<circle class="st0" cx="107.6" cy="-157.2" r="70.7"/>
<circle cx="107.6" cy="-157.2" r="62"/>
<path class="st0" d="M107.6-208.4c-28.3,0-51.2,22.9-51.2,51.2c0,28.3,22.9,51.2,51.2,51.2s51.2-22.9,51.2-51.2
	C158.7-185.4,135.8-208.4,107.6-208.4z M107.6-114.8c-23.4,0-42.4-19-42.4-42.4c0-23.4,19-42.4,42.4-42.4c23.4,0,42.4,19,42.4,42.4
	C150-133.7,131-114.8,107.6-114.8z"/>
<rect x="260.9" y="-269" transform="matrix(0.7071 0.7071 -0.7071 0.7071 -71.8835 -280.6184)" class="st0" width="83.8" height="83.8"/>
<rect x="260.9" y="-150.5" transform="matrix(0.7071 0.7071 -0.7071 0.7071 11.9011 -245.9138)" class="st0" width="83.8" height="83.8"/>
<g>
	<g>
		<path class="st1" d="M13.9,15.9H9.7c-1.5,0-2.8,1.3-2.8,2.8v12c0,1.5,1.3,2.8,2.8,2.8h4.1V15.9z"/>
		<path class="st1" d="M15.3,34.3l6.5,5.2c2,1.7,3.5,0.6,3.5-1.5V11.8c0-2.3-1.3-3.9-3.5-1.7l-6.5,5.2V34.3z"/>
		<circle class="st1" cx="23.9" cy="24.7" r="4.5"/>
	</g>
	<g>
		<path class="st1" d="M35.3,10.4c0,0-0.9-0.6-1.6,0.2c-0.7,0.7-0.2,1.6-0.2,1.6c3,3.2,4.9,7.5,4.9,12.2c0,5-2.1,9.6-5.5,12.8
			c0,0-0.8,1.1,0,1.8s1.8-0.1,1.8-0.1c3.8-3.7,6.2-8.8,6.2-14.6C40.9,19,38.8,14,35.3,10.4z"/>
	</g>
	<g>
		<path class="st1" d="M32.3,24.4c0,3.5-1.5,6.7-3.9,8.9c0,0-0.5,1.2,0,1.8s1.7,0,1.7,0c2.8-2.7,4.6-6.4,4.6-10.6
			c0-3.9-1.5-7.4-4-10.1c0,0-0.9-0.5-1.6,0.2c-0.7,0.7-0.2,1.6-0.2,1.6C31,18.3,32.3,21.2,32.3,24.4z"/>
	</g>
</g>
</svg>
