<?xml version="1.0" encoding="utf-8"?>
<!-- Generator: Adobe Illustrator 21.1.0, SVG Export Plug-In . SVG Version: 6.00 Build 0)  -->
<svg version="1.1" id="Layer_1" xmlns="http://www.w3.org/2000/svg" xmlns:xlink="http://www.w3.org/1999/xlink" x="0px" y="0px"
	 viewBox="0 0 50 50" style="enable-background:new 0 0 50 50;" xml:space="preserve">
<style type="text/css">
	.st0{fill:#939598;}
	.st1{fill:#FFFFFF;}
</style>
<g id="Layer_x0020_1">
	<path class="st0" d="M44.5,11.6c-0.9-0.8-2-1.3-3.3-1.5c-2.7-0.3-5.4-0.5-8.1-0.5c-2.7-0.1-5.4-0.1-8.1-0.1c-2.7,0-5.4,0-8.1,0.1
		c-2.7,0.1-5.4,0.2-8.1,0.5c-1.2,0.1-2.4,0.7-3.3,1.5c-0.9,0.8-1.5,1.9-1.8,3.1c-0.4,1.7-0.6,3.4-0.7,5.1c-0.1,1.8-0.1,3.5-0.1,5.2
		c0,1.7,0,3.4,0.1,5.2c0.1,1.7,0.3,3.5,0.7,5.1c0.3,1.2,0.9,2.3,1.8,3.1c0.9,0.8,2,1.3,3.3,1.5c2.7,0.3,5.4,0.5,8.1,0.5
		c2.7,0.1,5.4,0.1,8.1,0.1c2.7,0,5.4,0,8.1-0.1c2.7-0.1,5.4-0.2,8.1-0.5c1.2-0.1,2.4-0.7,3.3-1.5c0.9-0.8,1.5-1.9,1.8-3.1
		c0.4-1.7,0.6-3.4,0.7-5.1c0.1-1.7,0.1-3.5,0.1-5.2h0v-0.1h0c0-3.4,0-6.9-0.8-10.2C46,13.4,45.4,12.4,44.5,11.6L44.5,11.6z"/>
	<path class="st1" d="M33.4,24.2c-2.5-1.3-5-2.6-7.5-3.9c-2.1-1.1-4.1-2.2-6.2-3.2l-0.7-0.4v0.8v14.3v0.8l0.7-0.4
		c2.3-1.2,4.6-2.4,6.9-3.6l6.9-3.6l0.8-0.4L33.4,24.2L33.4,24.2z"/>
</g>
</svg>
