<?xml version="1.0" encoding="utf-8"?>
<!-- Generator: Adobe Illustrator 21.1.0, SVG Export Plug-In . SVG Version: 6.00 Build 0)  -->
<svg version="1.1" id="Layer_1" xmlns="http://www.w3.org/2000/svg" xmlns:xlink="http://www.w3.org/1999/xlink" x="0px" y="0px"
	 viewBox="0 0 2378 2500" style="enable-background:new 0 0 2378 2500;" xml:space="preserve">
<style type="text/css">
	.st0{fill:url(#SVGID_1_);}
	.st1{fill:none;stroke:#C8C8C8;stroke-width:6.005;}
	.st2{fill:#A7A9AC;}
	.st3{fill:url(#SVGID_2_);}
	.st4{fill:url(#SVGID_3_);}
	.st5{fill:#FFF9F9;}
	.st6{fill:#939598;}
	.st7{fill:#FFFFFF;stroke:#000000;stroke-width:0.9802;stroke-miterlimit:10;}
</style>
<image style="overflow:visible;opacity:0.75;enable-background:new    ;" width="490" height="641" xlink:href="7FC174250CACD0E5.png"  transform="matrix(3.8575 0 0 3.8575 -2820.7041 2057.8103)">
</image>
<linearGradient id="SVGID_1_" gradientUnits="userSpaceOnUse" x1="321.5288" y1="188.6442" x2="490.9748" y2="495.6692" gradientTransform="matrix(3.8575 0 0 -3.8575 3459.3696 3022.4973)">
	<stop  offset="0" style="stop-color:#FFFFFF"/>
	<stop  offset="1" style="stop-color:#E1E1E1"/>
</linearGradient>
<path class="st0" d="M4183.6,451h1073.7c190.5,190.5,435,436.1,696.8,697.9v1651.8H4183.6V451L4183.6,451z"/>
<path class="st1" d="M-2527-17.3h1598.3v537.2H-2527V-17.3z"/>
<g>
	<path class="st2" d="M-1816.4,1627.2c49.5-97.1,105.8-206.5,150.9-316.3l17.8-43.4c-58.8-224-94.1-403.7-62.6-520
		c8.5-30.3,43.6-48.7,81.1-48.7l22.9,0.3h4.2c51.4-0.8,75.6,64.6,78.3,90c4.5,42.3-15,113.9-15,113.9c0-28.9,1.1-75.6-17.1-116
		c-21.2-46.7-41.5-74.5-59.7-79c-9.2,6.1-18.1,18.8-21.2,43.3c-6.3,34.3-8.2,77.5-8.2,99.8c0,78.8,15.5,182.8,46,290
		c5.8-16.6,10.8-32.5,14.8-47.5c6.3-23.5,46-179.7,46-179.7s-10,207.8-24,270.7c-3,13.3-6.3,26.4-9.7,39.9
		c50.3,140.5,131.3,265.8,227.9,356.1c38.1,35.6,86.2,64.3,131.8,90.5c99.5-14.2,191-20.9,267.4-20.1c101.4,1.3,175.8,16.3,205.9,46
		c14.8,14.4,20.7,31.8,22.6,51.4c0.4,7.6-3.3,25.4-4.3,29.9c1.1-5.4,1.1-32.1-80.3-58.1c-64.1-20.5-184-19.8-327.9-4.5
		c166.5,81.4,328.6,121.9,380,97.6c12.6-6.1,27.8-27,27.8-27s-9.1,41.2-15.6,51.4c-8.3,11.2-24.6,23.3-40,27.4
		c-81.2,21.7-292.4-28.5-476.6-133.7c-205.8,30.3-431.8,86.3-612.9,145.7c-178,312-311.8,455.2-420.7,400.7l-40-20.1
		c-16.3-9.3-18.8-32-15-50.4c12.7-62.1,90.6-155.6,247-249c16.8-10.2,91.8-49.8,91.8-49.8s-55.5,53.7-68.5,64.3
		c-124.8,102.3-217,231-214.7,280.9l0.5,4.3C-2179.9,2243.2-2020.9,2027.3-1816.4,1627.2 M-1751.6,1660.4
		c-34.2,64.3-67.5,124-98.4,178.7c170.5-71.4,354-117.1,528.6-149.6c-23.5-16.2-46.3-33.4-67.7-51.5
		c-96.2-81.4-169.5-183-222.7-289.9C-1645.4,1438.9-1685.5,1535.4-1751.6,1660.4"/>
</g>
<g>
	
		<image style="overflow:visible;opacity:0.3;enable-background:new    ;" width="445" height="171" xlink:href="7FC174250CACD0E7.png"  transform="matrix(3.849 0 0 3.8351 -3137.8557 -629.9388)">
	</image>
	
		<linearGradient id="SVGID_2_" gradientUnits="userSpaceOnUse" x1="-2058.188" y1="-130.9523" x2="-2138.6816" y2="-378.6879" gradientTransform="matrix(3.8575 0 0 3.8575 5810.853 670.5933)">
		<stop  offset="0.127" style="stop-color:#8A0000"/>
		<stop  offset="0.244" style="stop-color:#900000;stop-opacity:0.999"/>
		<stop  offset="0.398" style="stop-color:#A00000;stop-opacity:0.999"/>
		<stop  offset="0.573" style="stop-color:#BC0000;stop-opacity:0.998"/>
		<stop  offset="0.761" style="stop-color:#E20000;stop-opacity:0.997"/>
		<stop  offset="0.867" style="stop-color:#FA0000;stop-opacity:0.996"/>
	</linearGradient>
	<path class="st3" d="M-3083-581h1598.3v537.2H-3083V-581z"/>
	
		<linearGradient id="SVGID_3_" gradientUnits="userSpaceOnUse" x1="-2054.7883" y1="-121.1319" x2="-2141.6643" y2="-388.5093" gradientTransform="matrix(3.8575 0 0 3.8575 5810.853 670.5933)">
		<stop  offset="0.315" style="stop-color:#5E0000"/>
		<stop  offset="0.444" style="stop-color:#830000;stop-opacity:0.999"/>
		<stop  offset="0.618" style="stop-color:#AE0000;stop-opacity:0.998"/>
		<stop  offset="0.775" style="stop-color:#CD0000;stop-opacity:0.997"/>
		<stop  offset="0.908" style="stop-color:#E00000;stop-opacity:0.996"/>
		<stop  offset="1" style="stop-color:#E70000;stop-opacity:0.996"/>
	</linearGradient>
	<path class="st4" d="M-1454.2-11.5h-1657.7v-601.7h1657.7V-11.5z M-1513.8-553.6h-1538.5v482.3h1538.5V-553.6z"/>
	<path class="st5" d="M-2665.3-502.1h116.3c34.6,0,61.1,10.2,79.5,30.6c18.6,20.3,27.9,49.2,27.9,86.8c0,37.8-9.3,66.8-27.9,87.3
		c-18.4,20.3-45,30.4-79.5,30.4h-46.2v124.9h-70.1V-502.1 M-2595.2-434.9v100.5h38.8c13.6,0,24.1-4.3,31.5-13
		c7.4-8.8,11.1-21.3,11.1-37.4s-3.7-28.4-11.1-37.1c-7.4-8.7-17.9-13-31.5-13L-2595.2-434.9 M-2322.2-432v219.6h25.1
		c28.6,0,50.5-9.4,65.5-28.2c15.2-18.8,22.8-46.1,22.8-81.9c0-35.7-7.5-62.8-22.6-81.5c-15-18.6-36.9-28-65.7-28H-2322.2
		 M-2392.2-502.1h73.9c41.3,0,72,3.9,92.1,11.8c20.3,7.7,37.6,20.9,52.1,39.5c12.7,16.2,22.2,34.9,28.4,56.2
		c6.2,21.2,9.3,45.2,9.3,72.1c0,27.2-3.1,51.4-9.3,72.8c-6.2,21.2-15.6,39.9-28.4,56.2c-14.6,18.6-32,31.9-52.4,39.8
		c-20.4,7.7-51,11.6-91.7,11.6h-73.9V-502.1 M-2082.8-502.1h189.1v70.1h-119v67h111.9v70.1h-111.9v152.6h-70.1V-502.1"/>
</g>
<g>
	<path class="st6" d="M1858.2,2318.6H414l-91.9-130.3V287.7l113.8-113.5h840.3c0,0,227.6,151.4,372,306.9s332.6,370,332.6,370
		v1240.4L1858.2,2318.6z"/>
	<path class="st7" d="M431.5,291.9v1887.9c0,0,1365.4,37.8,1365.4,0s0-1408.6,0-1408.6l-490.2-496.2
		C1306.7,275.1,431.5,279.3,431.5,291.9z"/>
	<path class="st6" d="M1197.3,228.8c0,0,87.5,496.2,26.3,555c0,0,328.2,0,643.3,138.8l56.9-79.9L1473,355L1228,195.2L1197.3,228.8z"
		/>
	<path class="st7" d="M1271.7,224.6c0,0,52.5,412.1,26.3,470.9c0,0,564.6,113.5,630.2,180.8s-231.9-235.5-380.7-391
		S1271.7,224.6,1271.7,224.6z"/>
</g>
</svg>
