<?xml version="1.0" encoding="utf-8"?>
<!-- Generator: Adobe Illustrator 21.1.0, SVG Export Plug-In . SVG Version: 6.00 Build 0)  -->
<svg version="1.1" id="Layer_1" xmlns="http://www.w3.org/2000/svg" xmlns:xlink="http://www.w3.org/1999/xlink" x="0px" y="0px"
	 viewBox="0 0 50 50" style="enable-background:new 0 0 50 50;" xml:space="preserve">
<style type="text/css">
	.st0{fill:#FFFFFF;stroke:#000000;stroke-width:1.878;stroke-miterlimit:10;}
	.st1{fill:#FFFFFF;stroke:#939598;stroke-width:1.878;stroke-miterlimit:10;}
	.st2{fill:none;stroke:#939598;stroke-width:1.878;stroke-linecap:round;stroke-miterlimit:10;}
</style>
<path class="st0" d="M36.1,45.1H14.4c-4.2,0-7.7-3.5-7.7-7.7V12.6c0-4.2,3.5-7.7,7.7-7.7h21.6c4.2,0,7.7,3.5,7.7,7.7v24.9
	C43.7,41.7,40.3,45.1,36.1,45.1z"/>
<path class="st1" d="M35.1,44.1H13.4c-4.2,0-7.7-3.5-7.7-7.7V11.6c0-4.2,3.5-7.7,7.7-7.7h21.6c4.2,0,7.7,3.5,7.7,7.7v24.9
	C42.7,40.7,39.3,44.1,35.1,44.1z"/>
<line class="st2" x1="11.2" y1="14.7" x2="37.8" y2="14.7"/>
<line class="st2" x1="11.2" y1="21.9" x2="37.8" y2="21.9"/>
<line class="st2" x1="11.2" y1="29.3" x2="37.8" y2="29.3"/>
</svg>
