<?xml version="1.0" encoding="utf-8"?>
<!-- Generator: Adobe Illustrator 21.1.0, SVG Export Plug-In . SVG Version: 6.00 Build 0)  -->
<svg version="1.1" id="Layer_1" xmlns="http://www.w3.org/2000/svg" xmlns:xlink="http://www.w3.org/1999/xlink" x="0px" y="0px"
	 viewBox="0 0 50 50" style="enable-background:new 0 0 50 50;" xml:space="preserve">
<style type="text/css">
	.st0{fill:#FFFFFF;}
	.st1{fill:#939598;}
</style>
<path class="st0" d="M9.7,26.2l-4.8,4.5c0,0,2.4,5.9,2.3,6.3c-0.1,0.4,20.2,6.1,20.2,6.1l17.3-19.3l1.1-11.8L23.9,9L8.4,25.2
	L9.7,26.2z"/>
<path class="st1" d="M46.1,21.1c0.3-1.2,0.7-2.6-1.4-2.9S42.9,24,42.9,24L28,41.8L9.1,36.1c0,0-2.1-0.2-2.1-3.9s3.1-3,3.1-3
	s12.6,3.7,15.4,4.6s3.4-0.8,3.4-0.8s15.2-17.2,17-19.5s-0.6-3-0.6-3s-17.8-4-20-4.4s-2.4,0.6-2.4,0.6l-17.1,19c0,0-2.1,4.2-2,6.1
	c0.2,6,4.3,7.6,4.3,7.6s16.1,4.8,19,5.9s3.1-1,3.1-1s15.1-17.9,15.9-18.9S45.8,22.2,46.1,21.1z M21.1,14.3c0.6-0.6,1.2-1.4,1.2-1.4
	s1-1,2.7-0.4s3.2,0.8,3.2,0.8l7.9,2.1c0,0,1.9,0.1,1,1.3s-1.3,1.6-1.3,1.6s-1.2,0.8-2.2,0.4s-11.8-3.1-11.8-3.1S20.5,14.9,21.1,14.3
	z"/>
</svg>
