<?xml version="1.0" encoding="utf-8"?>
<!-- Generator: Adobe Illustrator 21.1.0, SVG Export Plug-In . SVG Version: 6.00 Build 0)  -->
<svg version="1.1" id="Layer_1" xmlns="http://www.w3.org/2000/svg" xmlns:xlink="http://www.w3.org/1999/xlink" x="0px" y="0px"
	 viewBox="0 0 50 50" style="enable-background:new 0 0 50 50;" xml:space="preserve">
<style type="text/css">
	.st0{fill:#939598;}
	.st1{fill:#FFFFFF;}
</style>
<ellipse class="st0" cx="25.2" cy="23.2" rx="22.2" ry="18"/>
<path class="st0" d="M102.7,23.8c0.3-1.2,0.7-2.6-1.4-2.9s-1.8,5.8-1.8,5.8L84.6,44.6l-18.9-5.8c0,0-2.1-0.2-2.1-3.9s3.1-3,3.1-3
	s12.6,3.7,15.4,4.6s3.4-0.8,3.4-0.8s15.2-17.2,17-19.5s-0.6-3-0.6-3s-17.8-4-20-4.4s-2.4,0.6-2.4,0.6l-17.1,19c0,0-2.1,4.2-2,6.1
	c0.2,6,4.3,7.6,4.3,7.6s16.1,4.8,19,5.9s3.1-1,3.1-1s15.1-17.9,15.9-18.9S102.4,25,102.7,23.8z M77.7,17.1c0.6-0.6,1.2-1.4,1.2-1.4
	s1-1,2.7-0.4s3.2,0.8,3.2,0.8l7.9,2.1c0,0,1.9,0.1,1,1.3S92.4,21,92.4,21s-1.2,0.8-2.2,0.4s-11.8-3.1-11.8-3.1S77.1,17.7,77.7,17.1z
	"/>
<g>
	<path class="st1" d="M34.7,26.5c0,5.1-4.7,8.3-5.5,8.7c-0.5,0.3-1,0.5-1.4,0.5c-0.3,0-0.5-0.1-0.5-0.4c0-0.2,0.2-0.5,0.5-0.7
		c0.7-0.5,2.6-3,2.6-5.4c0-0.6-0.3-1.2-0.7-1.4c-0.4-0.2-2.5-0.7-2.5-3.3c0-1.5,1.2-2.8,2.9-2.8C32.4,21.6,34.7,23.3,34.7,26.5z
		 M44,26.5c0,5.1-4.7,8.3-5.5,8.7c-0.5,0.3-1,0.5-1.4,0.5c-0.3,0-0.5-0.1-0.5-0.4c0-0.2,0.2-0.5,0.5-0.7c0.7-0.5,2.6-3,2.6-5.4
		c0-0.6-0.3-1.2-0.7-1.4c-0.4-0.2-2.5-0.7-2.5-3.3c0-1.5,1.2-2.8,2.9-2.8C41.7,21.6,44,23.3,44,26.5z"/>
</g>
<g>
	<path class="st1" d="M20,12.4c1.8,0,3.1,1.4,3.1,3c0,2.7-2.1,3.2-2.6,3.4c-0.4,0.2-0.8,0.8-0.8,1.5c0,2.5,2,5.2,2.7,5.7
		c0.3,0.2,0.5,0.5,0.5,0.8s-0.2,0.4-0.5,0.4c-0.4,0-0.9-0.2-1.4-0.5c-0.8-0.4-5.7-3.7-5.7-9C15.2,14.2,17.6,12.4,20,12.4z
		 M10.3,12.4c1.8,0,3.1,1.4,3.1,3c0,2.7-2.1,3.2-2.6,3.4C10.3,19,10,19.6,10,20.3c0,2.5,2,5.2,2.7,5.7c0.3,0.2,0.5,0.5,0.5,0.8
		s-0.2,0.4-0.5,0.4c-0.4,0-0.9-0.2-1.4-0.5c-0.8-0.4-5.7-3.7-5.7-9C5.5,14.2,7.9,12.4,10.3,12.4z"/>
</g>
<path class="st0" d="M11.6,36.1c0,0-3.4,8.1-6.1,9.2s4.2,1.9,7.1,0.1s12.2-9.1,12.2-9.1L11.6,36.1z"/>
</svg>
