<?xml version="1.0" encoding="utf-8"?>
<!-- Generator: Adobe Illustrator 21.1.0, SVG Export Plug-In . SVG Version: 6.00 Build 0)  -->
<svg version="1.1" id="Layer_1" xmlns="http://www.w3.org/2000/svg" xmlns:xlink="http://www.w3.org/1999/xlink" x="0px" y="0px"
	 viewBox="0 0 100 100" style="enable-background:new 0 0 100 100;" xml:space="preserve">
<style type="text/css">
	.st0{fill:#3E62AD;}
	.st1{fill:#FFFFFF;}
	.st2{fill:none;stroke:#3E62AD;stroke-miterlimit:10;}
	.st3{fill:#585B5C;}
	.st4{fill:#C2C1C0;}
	.st5{fill:#777B7D;}
</style>
<circle class="st0" cx="218" cy="-22.1" r="42"/>
<circle class="st1" cx="217.5" cy="-22.1" r="37.1"/>
<g id="ZMygXn_1_">
	
		<image style="overflow:visible;" width="736" height="1012" id="ZMygXn_2_" xlink:href="19E3460A09DFCC57.png"  transform="matrix(0.2295 0 0 0.2295 97.6283 51.666)">
	</image>
</g>
<path class="st2" d="M-90.8,93.9c0,0-1-19.8,3-24.6s15.6-10.4,18.2-11s4-10.3,3.6-10.7c-0.4-0.3-4.4,1.4-7.4,0.9
	c-2.9-0.5-7.6-10.1-7.2-14.4c0.4-4.3-1.6-18.3,18.1-21s20.3,9.9,20.4,13.5S-49,42.8-53.9,45.5c-4.9,2.7,4.7,12.4,10.4,13.8
	s23.4,6.3,26.9,14.6"/>
<path class="st0" d="M195.1,11.7c0,0,8.6-3.1,15.6-8.4c0.5-0.4,1.2-5-0.8-7.5c0,0-4.7,1.1-5.9,0.2c-1.2-0.9-3.4-6.1-4.6-7
	c-1.2-0.9-3.7-5-2.1-12.2c0,0-0.6-4.8-1.4-7.5c-0.7-2.7,1.3-11,6.9-14.6c5.6-3.5,13.8-4.7,20.8-1c7.1,3.7,8.8,9.8,8.8,12
	c0,2.2,0.7,7.4-0.7,10.1c0,0,0.6,2.8,0.1,4.2c-0.5,1.5-3.4,5-5.7,5c0,0-0.7,4.5-0.7,5.7s2.6,9.3,3.7,9.6c1.1,0.4,4.4,2,6.8,2.5
	c6.2,1.3,13.7,1.3,12.8,1.1c0,0,8-5.9,4.5-4.8S234-0.7,232.7-2.2c-0.9-0.9-3.7-5-3.7-7.5s1.6-3.6,1.6-3.6s3.5-1.6,4.3-3.9
	s1.4-7.6,1.4-7.6s2.1-3,0.9-10.1s-6.5-13.2-11.7-15.5c-6.1-2.6-17.2-3.3-24.3,1.8c-5.3,3.8-10.3,12-9.3,17s2,7.8,2,7.8l-0.9,6.8
	c0,0,1.5,5.4,2.6,6.5c1,1,3.8,6.1,4.3,7.1c0.5,1,2.5,2.9,3.4,2.9s3-0.2,3-0.2s0.3,1.3-0.7,2.6s-9.8,5-13.2,5.4
	C188.9,7.8,195.1,11.7,195.1,11.7z"/>
<path class="st3" d="M162.4-8.5c-23.9,0-43.3,19.4-43.3,43.3c0,23.9,19.4,43.3,43.3,43.3s43.3-19.4,43.3-43.3
	C205.7,10.8,186.3-8.5,162.4-8.5z M162.4,70.4c-19.7,0-35.6-16-35.6-35.6s16-35.6,35.6-35.6s35.6,16,35.6,35.6
	S182.1,70.4,162.4,70.4z"/>
<path class="st3" d="M178.2,70.2c-0.6,0.2-1.4,0.3-2.4,0.4c1-1.2,2.8-2.9,1.4-2.5c-3.1,1-17.2,1.7-18.4,0.4
	c-0.3-0.3-2.6-3.5-2.6-4.6c0-2.4,0.6-3.7,0.6-3.7s4.4-1.8,5.1-4.1s1.4-7.7,1.4-7.7s1.6-3.1,0.4-9.9S157.1,25.3,152,23
	c-5.9-2.6-18.3-2.6-25.2,2.4c-5.1,3.7-10.1,11.5-9.1,16.4s1.7,7.5,1.7,7.5L119,56c0,0,2.1,5.1,3.2,6.2c1,1,3.2,6.3,3.6,7.3
	s2.3,2.8,3.2,2.8c0.8,0,2.4,0,2.4,0s0.2,0.2,0.1,0.6c-2.3,1.3-8.9,3.7-11.5,4c-1,0.1-0.9,0.7-0.3,1.5c-0.8,0.2-1.4,0.3-2,0.4
	c-3.3,0.4,4.5,5.5,4.5,5.5s10.1-2.7,16.8-7.9c0.2-0.1,2.4-6.6-0.2-10.1c0,0-5.8,1.6-6.9,0.8c-1-0.8-3.3-6.6-4.4-7.4
	c-1.1-0.8-2.3-5.4-1.3-9.8c0,0-0.2-3.6-0.8-6c-0.7-2.4,0.2-8.8,5.3-12c5.1-3.2,12.3-5.1,18.7-1.8c6.4,3.3,8.1,7.8,8.1,9.8
	c0,2,0.7,6.6-0.7,9.1c0,0,0.5,2.5,0.1,3.8c-0.4,1.3-3.9,5.4-6,5.4c0,0-0.6,4.9-0.6,6c0,0.2,0.1,0.4,0.2,0.7c0,0.1,0,0.1,0,0.2
	c0,1.2,3.3,7.6,4.4,8c1.1,0.4,4.6,2.1,7,2.6c6,1.3,13,0.5,12.2,0.3C174.1,75.9,181.6,69.1,178.2,70.2z"/>
<g id="l2F7iJ_1_">
	
		<image style="overflow:visible;" width="225" height="225" id="l2F7iJ_2_" xlink:href="19E3460A09DFCC55.png"  transform="matrix(2.436782e-17 0.398 -0.398 2.436782e-17 237.6808 65.2567)">
	</image>
</g>
<path class="st3" d="M133.7,112.1L166,79.7c0,0,0.9-1.4,0.6-1.8c-0.4-0.4-2.8-2.5-0.8-4.3c2-1.8,3.1-0.4,3.8,0.1s1.9-0.2,2-0.7
	c0.1-0.5,0.1-2.4-1.1-5.7c-1.2-3.3-2-12.2,5-19.2c7-7,22.6-10.7,32.8-0.6c10.1,10.1,9.5,24.8,2,32.3c-7.5,7.5-18.9,6.3-19.4,6.1
	c-0.5-0.1-7.1-2.1-7.6-1.7c-0.5,0.5-1.5,2.8-0.7,3.3c0.8,0.5,1.4,2.8,0.6,3.8c-0.8,0.9-3,1.2-3.9-0.5c-0.9-1.7-2.1-0.1-2.1-0.1
	l-9.1,8.4l-7.8-0.2v6.7c0,0-3.2-0.9-3.8,0c-0.6,0.9-0.1,4.8-0.6,5.6c-0.5,0.7-1.8,1.1-3.8,1.1c-2,0-4.6,3-5.3,5.2
	c-0.7,2.2-4,4.5-6.1,3.3c-2.1-1.2-5.7-0.5-5.7-0.5l-0.5-6L133.7,112.1z"/>
<path class="st3" d="M182-9.9c-10.1-10.1-25.8-6.4-32.8,0.6c-7,7-6.1,15.8-5,19.2c1.2,3.3,1.2,5.2,1.1,5.7c-0.1,0.5-1.3,1.2-2,0.7
	c-0.7-0.5-1.8-1.9-3.8-0.1c-2,1.8,0.5,3.9,0.8,4.3c0.4,0.4-0.6,1.8-0.6,1.8l-32.3,32.4l0.7,2.4l0.5,6c0,0,3.5-0.7,5.7,0.5
	c2.1,1.2,5.4-1.1,6.1-3.3s3.3-5.2,5.3-5.2s3.3-0.4,3.8-1.1c0.5-0.7,0-4.6,0.6-5.6s3.8,0,3.8,0v-6.7l7.8,0.2l9.1-8.4
	c0,0,1.2-1.5,2.1,0.1c0.9,1.7,3.1,1.4,3.9,0.5s0.2-3.3-0.6-3.8c-0.8-0.5,0.2-2.8,0.7-3.3s7.1,1.5,7.6,1.7c0.5,0.1,11.9,1.3,19.4-6.1
	C191.4,14.9,192.1,0.2,182-9.9z M130,44c-1.8,0.4-2.7,1.5-3.2,2.2c-0.8,1.3-0.9,3-0.9,4.7c0,0,0,0,0,0c-4.3,0-8.1,4.6-9.1,8
	c-0.1,0.2-0.5,0.6-0.9,0.8c-1-0.5-2.2-0.8-3.4-0.9l-0.2-2.6l-0.1-0.5l18-18V44z M181.1,19.5c-4.6,4.6-11.4,5.1-14.1,5.1
	c-0.8,0-1.3,0-1.6-0.1l-0.3-0.1c-4.4-1.3-6.5-1.7-7.8-1.7c-1.6,0-2.6,0.7-3.2,1.2c-0.9,0.9-1.9,2.8-2.1,4.7c0,0-0.1,0-0.1,0
	c-2,0-3.3,1.2-4,1.9l-7.7,7.1l-10.1-0.3l12.7-12.7l0.2-0.3c1.1-1.6,1.4-2.9,1.3-4c2-0.2,4.2-1.6,4.8-3.9c0.4-1.8,0-4.7-1.2-8
	c-0.8-2.2-1.6-9.3,4-15c3.4-3.4,9.2-5.6,14.6-5.6c3.4,0,8.3,0.9,12.5,5c4,4,6.3,9.1,6.4,14.4C185.7,12.2,184.1,16.6,181.1,19.5z"/>
<path class="st1" d="M-26.2,25.4"/>
<path class="st3" d="M199.5,106.8c-9.9,12.1-27.7,13.8-39.8,3.7c-12.1-10.1-13.8-28.1-4-40.2c9.9-12.1,27.7-13.8,39.8-3.7
	S209.4,94.6,199.5,106.8z"/>
<path class="st3" d="M156,90.7l-39,45.7l4.1,12.1l11.4,0.4l1.8-4.1c0,0,8.2,1.6,9.6,0.1c1.4-1.5,1.8-10.3,1.8-10.3s6,1.5,7.1-0.5
	c1.2-2,0.3-7.8,1.8-8.8c1.4-1.1,6.5-1,8.1-1.3s-0.2-6.3-0.2-6.3l23.5-12.3L156,90.7z"/>
<ellipse transform="matrix(0.5729 -0.8196 0.8196 0.5729 4.0682 183.6247)" class="st4" cx="178.2" cy="87.9" rx="19.2" ry="20.2"/>
<polygon class="st4" points="160.8,91.1 157.3,101.7 124.7,137.2 126.4,141.3 129.2,139.5 137.4,138.7 139.1,128.6 147.9,128 
	148.6,119.5 157.9,118.5 158.9,109.8 166.8,105.8 176.9,105.8 167.9,99.7 "/>
<ellipse transform="matrix(0.7318 -0.6815 0.6815 0.7318 -7.8441 145.5287)" class="st3" cx="181" cy="82.7" rx="9.9" ry="11"/>
<ellipse transform="matrix(0.7318 -0.6815 0.6815 0.7318 -7.2051 145.2015)" class="st4" cx="180.9" cy="81.8" rx="3.8" ry="4.4"/>
<g>
	<path class="st5" d="M60.6,18c-4,3.7-3.9,10.3,0.3,14.8s10.7,5,14.7,1.3c4-3.7,3.9-10.3-0.3-14.8C71.2,14.9,64.6,14.3,60.6,18z
		 M70.9,28.2c-1.5,1.4-4.1,1.2-5.8-0.6c-1.6-1.8-1.7-4.4-0.2-5.8c1.5-1.4,4.1-1.2,5.8,0.6S72.5,26.8,70.9,28.2z"/>
	<path class="st5" d="M82.7,9.8C70.6-0.2,52.8,1.4,42.9,13.5c-6.3,7.7-7.8,17.8-5.1,26.7L4.1,79.7l4.1,12.1l11.4,0.4l1.8-4.1
		c0,0,8.2,1.6,9.6,0.1c1.4-1.5,1.8-10.3,1.8-10.3s6,1.5,7.1-0.5c1.2-2,0.3-7.8,1.8-8.8c1.4-1.1,6.5-1,8.1-1.3s-0.2-6.3-0.2-6.3
		l4.9-2.6c11.1,4.4,24.1,1.4,32.1-8.3C96.5,37.9,94.8,19.9,82.7,9.8z M81.9,42.8c-1.6,2.3-3.6,4-5.8,5.3c-0.4,0.5-0.9,0.9-1.5,1.2
		c-0.5,0.2-1.6,0.5-3,0.7c-0.6,0.2-1.2,0.3-1.8,0.4l0.4-0.2c-1.8,0.2-3.8,0.4-5.9,0.4c-0.9,0-1.7,0.1-2.6,0.1c-0.1,0-0.2,0-0.2,0
		c-0.3,0-0.7,0-1,0c-0.1,0-0.2,0-0.3,0c-0.3,0-0.7,0-1,0c-0.1,0-0.1,0-0.2,0c-0.4,0-0.7,0-1.1-0.1c-0.1,0-0.1,0-0.2,0
		c-0.3,0-0.6,0-0.8-0.1c-0.1,0-0.2,0-0.3,0c-0.2,0-0.4-0.1-0.6-0.1c-0.1,0-0.2,0-0.3,0c-0.3,0-0.5-0.1-0.7-0.2
		c-4.3-1.2-2.8,3.7-2.8,3.7l-4.5,0.6l-1.8,0.2L45,61.8l-9.3,1.1L35,71.3l-8.8,0.7l-1.7,10l-8.2,0.8l-2.8,1.9l-1.6-4.2l28.9-31.4
		L40.6,49l4.6-6.5l0,0l2.3-3.3c-0.3-0.5-0.5-1.1-0.7-1.6l0,0c-0.1-0.3-0.2-0.5-0.3-0.8c0-0.1-0.1-0.2-0.1-0.2
		c-0.1-0.3-0.2-0.6-0.3-0.8c-0.2-0.8-0.4-1.6-0.5-2.3c-0.8-4.7,0.2-9.6,3.1-13.7c6.1-8.7,18.4-10.6,27.6-4.2
		C85.5,21.9,88,34.1,81.9,42.8z"/>
</g>
</svg>
