<?xml version="1.0" encoding="utf-8"?>
<!-- Generator: Adobe Illustrator 21.1.0, SVG Export Plug-In . SVG Version: 6.00 Build 0)  -->
<svg version="1.1" id="Layer_1" xmlns="http://www.w3.org/2000/svg" xmlns:xlink="http://www.w3.org/1999/xlink" x="0px" y="0px"
	 viewBox="0 0 24 24" style="enable-background:new 0 0 24 24;" xml:space="preserve">
<style type="text/css">
	.st0{fill:#FFFFFF;}
</style>
<path class="st0" d="M6.8,18.1l-0.9-0.9c-0.5-0.5-0.5-1.2,0-1.7l9.6-9.6c0.5-0.5,1.2-0.5,1.7,0l0.9,0.9c0.5,0.5,0.5,1.2,0,1.7
	l-9.6,9.6C8,18.5,7.3,18.5,6.8,18.1z"/>
<path class="st0" d="M5.9,6.8l0.9-0.9c0.5-0.5,1.2-0.5,1.7,0l9.6,9.6c0.5,0.5,0.5,1.2,0,1.7l-0.9,0.9c-0.5,0.5-1.2,0.5-1.7,0
	L5.9,8.5C5.5,8,5.5,7.3,5.9,6.8z"/>
</svg>
