<?xml version="1.0" encoding="utf-8"?>
<!-- Generator: Adobe Illustrator 21.1.0, SVG Export Plug-In . SVG Version: 6.00 Build 0)  -->
<svg version="1.1" id="Layer_1" xmlns="http://www.w3.org/2000/svg" xmlns:xlink="http://www.w3.org/1999/xlink" x="0px" y="0px"
	 viewBox="0 0 60 60" style="enable-background:new 0 0 60 60;" xml:space="preserve">
<style type="text/css">
	.st0{fill:#22F70B;}
	.st1{fill:#131619;}
	.st2{fill:#FFFFFF;}
	.st3{fill:#91BCC4;}
</style>
<circle class="st0" cx="30" cy="30" r="29.8"/>
<circle class="st1" cx="30" cy="30" r="26.8"/>
<path class="st2" d="M30,14c-9.8,0-17.9,6.3-17.9,14c0,4,2.2,7.7,5.7,10.3c0.4,4.9-5.3,6.8-5.3,6.8l0.3,0.3
	c4.4,0.3,10.4-2.4,12.5-3.9c1.5,0.3,3.1,0.5,4.7,0.5c9.8,0,17.9-6.3,17.9-14S39.8,14,30,14z"/>
<path class="st3" d="M36.6,26.8c6.1,0,11.1,3.9,11.1,8.7c0,2.6-1.4,4.8-3.6,6.4c-0.2,3.1,4.1,4,4.1,4l-0.4,0.3
	c-2.7,0.2-7-1.2-8.3-2.2c-1,0.2-1.9,0.3-2.9,0.3c-6.1,0-11.1-3.9-11.1-8.7S30.4,26.8,36.6,26.8z"/>
<g>
	<circle class="st2" cx="32" cy="36.1" r="1.7"/>
	<circle class="st2" cx="36.8" cy="36.1" r="1.7"/>
	<circle class="st2" cx="41.7" cy="36.1" r="1.7"/>
</g>
<path class="st0" d="M31.8,11.5h-1c-0.9,0-1.6-0.7-1.6-1.6V6.6c0-0.9,0.7-1.6,1.6-1.6h1c0.9,0,1.6,0.7,1.6,1.6v3.3
	C33.4,10.8,32.7,11.5,31.8,11.5z"/>
<path class="st0" d="M38.7,13.4L37.8,13c-0.8-0.3-1.1-1.3-0.8-2.1l1.3-3c0.3-0.8,1.3-1.1,2.1-0.8l0.9,0.4c0.8,0.3,1.1,1.3,0.8,2.1
	l-1.3,3C40.4,13.4,39.5,13.7,38.7,13.4z"/>
<path class="st0" d="M24.2,13l-0.9,0.3c-0.8,0.3-1.7-0.2-2-1l-1.1-3.1c-0.3-0.8,0.2-1.7,1-2l0.9-0.3c0.8-0.3,1.7,0.2,2,1l1.1,3.1
	C25.5,11.8,25.1,12.7,24.2,13z"/>
</svg>
