<?xml version="1.0" encoding="utf-8"?>
<!-- Generator: Adobe Illustrator 21.1.0, SVG Export Plug-In . SVG Version: 6.00 Build 0)  -->
<svg version="1.1" id="Layer_1" xmlns="http://www.w3.org/2000/svg" xmlns:xlink="http://www.w3.org/1999/xlink" x="0px" y="0px"
	 viewBox="0 0 60 62" style="enable-background:new 0 0 60 62;" xml:space="preserve">
<style type="text/css">
	.st0{fill:#99A8D6;}
	.st1{fill:#2452A4;}
	.st2{fill:#FFFFFF;}
	.st3{fill:#06BCE7;}
</style>
<g>
	<circle class="st0" cx="30" cy="30.2" r="29.9"/>
	<circle class="st1" cx="30" cy="30.2" r="28.7"/>
	<path class="st2" d="M30,14.1c-9.9,0-17.9,6.3-17.9,14.1c0,4.1,2.2,7.8,5.7,10.3c0.4,5-5.3,6.9-5.3,6.9l0.3,0.3
		c4.4,0.3,10.5-2.3,12.6-3.9c1.5,0.4,3.1,0.5,4.7,0.5c9.9,0,17.9-6.3,17.9-14.1S39.9,14.1,30,14.1z"/>
	<path class="st3" d="M36.6,26.9c6.2,0,11.2,3.9,11.2,8.8c0,2.6-1.4,4.8-3.6,6.5c-0.2,3.1,4.1,4,4.1,4L48,46.5
		c-2.8,0.2-7-1.3-8.4-2.2c-0.9,0.2-1.9,0.3-2.9,0.3c-6.2,0-11.2-3.9-11.2-8.8S30.4,26.9,36.6,26.9z"/>
	<g>
		<circle class="st2" cx="32" cy="36.3" r="1.6"/>
		<circle class="st2" cx="36.9" cy="36.3" r="1.6"/>
		<circle class="st2" cx="41.8" cy="36.3" r="1.6"/>
	</g>
</g>
<polygon class="st2" points="44.5,62.1 30,47.6 15.5,62.1 "/>
</svg>
