<?xml version="1.0" encoding="utf-8"?>
<!-- Generator: Adobe Illustrator 21.1.0, SVG Export Plug-In . SVG Version: 6.00 Build 0)  -->
<svg version="1.1" id="Layer_1" xmlns="http://www.w3.org/2000/svg" xmlns:xlink="http://www.w3.org/1999/xlink" x="0px" y="0px"
	 viewBox="0 0 100 100" style="enable-background:new 0 0 100 100;" xml:space="preserve">
<style type="text/css">
	.st0{fill:#99A8D6;}
	.st1{fill:#2452A4;}
	.st2{fill:#FFFFFF;}
	.st3{fill:#06BCE7;}
</style>
<g>
	<circle class="st0" cx="50" cy="50" r="49.9"/>
	<circle class="st1" cx="50" cy="50" r="47.9"/>
	<path class="st2" d="M50,23.2c-16.5,0-29.9,10.6-29.9,23.5c0,6.8,3.7,12.9,9.5,17.2c0.6,8.3-8.9,11.5-8.9,11.5l0.5,0.5
		c7.4,0.5,17.5-3.9,21-6.5c2.5,0.6,5.1,0.8,7.8,0.8c16.5,0,29.9-10.6,29.9-23.5S66.5,23.2,50,23.2z"/>
	<path class="st3" d="M61,44.7c10.3,0,18.6,6.5,18.6,14.7c0,4.3-2.3,8.1-5.9,10.8c-0.4,5.2,6.9,6.7,6.9,6.7L80,77.3
		c-4.6,0.4-11.8-2.1-14-3.7c-1.5,0.4-3.2,0.5-4.9,0.5c-10.3,0-18.6-6.5-18.6-14.7S50.7,44.7,61,44.7z"/>
	<g>
		<circle class="st2" cx="53.3" cy="60.3" r="2.7"/>
		<circle class="st2" cx="61.5" cy="60.3" r="2.7"/>
		<circle class="st2" cx="69.7" cy="60.3" r="2.7"/>
	</g>
</g>
</svg>
