<?xml version="1.0" encoding="utf-8"?>
<!-- Generator: Adobe Illustrator 21.1.0, SVG Export Plug-In . SVG Version: 6.00 Build 0)  -->
<svg version="1.1" id="Layer_1" xmlns="http://www.w3.org/2000/svg" xmlns:xlink="http://www.w3.org/1999/xlink" x="0px" y="0px"
	 viewBox="0 0 80 80" style="enable-background:new 0 0 80 80;" xml:space="preserve">
<style type="text/css">
	.st0{fill:#FFFFFF;}
	.st1{fill:#A7A9AC;}
</style>
<path class="st0" d="M60.7,74.3H17.4c-4.8,0-8.8-3.9-8.8-8.8V11.8C8.7,7,12.6,3,17.4,3h43.3c4.8,0,8.8,3.9,8.8,8.8v53.7
	C69.5,70.4,65.5,74.3,60.7,74.3z"/>
<path class="st1" d="M60.1,17H16.9c-1,0-1.9-0.8-1.9-1.9v0c0-1,0.8-1.9,1.9-1.9h43.2c1,0,1.9,0.8,1.9,1.9v0C62,16.2,61.2,17,60.1,17
	z"/>
<path class="st1" d="M60.1,27.7H16.9c-1,0-1.9-0.8-1.9-1.9v0c0-1,0.8-1.9,1.9-1.9h43.2c1,0,1.9,0.8,1.9,1.9v0
	C62,26.9,61.2,27.7,60.1,27.7z"/>
<path class="st1" d="M60.1,38.4H16.9c-1,0-1.9-0.8-1.9-1.9v0c0-1,0.8-1.9,1.9-1.9h43.2c1,0,1.9,0.8,1.9,1.9v0
	C62,37.6,61.2,38.4,60.1,38.4z"/>
<path class="st1" d="M60.1,49.2H16.9c-1,0-1.9-0.8-1.9-1.9v0c0-1,0.8-1.9,1.9-1.9h43.2c1,0,1.9,0.8,1.9,1.9v0
	C62,48.3,61.2,49.2,60.1,49.2z"/>
<path class="st1" d="M60.1,59.9H16.9c-1,0-1.9-0.8-1.9-1.9v0c0-1,0.8-1.9,1.9-1.9h43.2c1,0,1.9,0.8,1.9,1.9v0
	C62,59,61.2,59.9,60.1,59.9z"/>
</svg>
