<?xml version="1.0" encoding="utf-8"?>
<!-- Generator: Adobe Illustrator 21.1.0, SVG Export Plug-In . SVG Version: 6.00 Build 0)  -->
<svg version="1.1" id="Layer_1" xmlns="http://www.w3.org/2000/svg" xmlns:xlink="http://www.w3.org/1999/xlink" x="0px" y="0px"
	 viewBox="0 0 100 100" style="enable-background:new 0 0 100 100;" xml:space="preserve">
<style type="text/css">
	.st0{fill:#808285;}
</style>
<g>
	<path d="M191.1,15.2c1.1,0,1.8,0.9,1.1,3.8c-1.5,6.2-15.4,58.2-15.4,58.2S153,67.1,150.3,66.1c-2.7-1-2.9-4.5,0.1-7.4
		c2.9-2.9,28.3-30.1,28.3-30.1s1-1.3,0.6-1.3c-0.5,0-2.8,1.6-10.3,8.4c-15,13.6-20.5,17-22.8,19c-1.2,1.1-4.9,4.5-10.6,4.5
		c-1.6,0-3.3-0.3-5.2-0.9c-1-0.3-7.7-3.1-7.7-3.1s-5.6-1.9,1.1-5.2c2.3-1.1,3.5-1.8,4.1-2c0,0,0,0,0,0s0.5-0.3,0.5-0.3
		c0,0-0.1,0.1-0.5,0.3c0.3-0.2,57.3-30.3,59-31.1C187.9,16.4,189.8,15.2,191.1,15.2 M191.1,12.4c-1.7,0-3.4,0.9-4.6,1.5
		c-0.2,0.1-0.4,0.2-0.6,0.3c-1.8,0.8-53.2,28-59.2,31.1l-0.8,0.4l-3.3,1.6c-1.3,0.6-5.1,2.6-4.9,6c0.2,2.9,3.2,4.2,4,4.5
		c1.3,0.5,6.8,2.8,7.8,3.1c2,0.7,4.1,1.1,6.1,1.1c6.6,0,10.9-3.8,12.4-5.1l0.1-0.1c0.2-0.2,0.5-0.4,0.8-0.7
		c-0.2,0.2-0.4,0.4-0.5,0.5c-2.3,2.3-3.4,5.3-2.8,7.8c0.4,2,1.8,3.6,3.8,4.3c2.1,0.8,18.2,7.6,26.4,11.1c0.4,0.2,0.7,0.2,1.1,0.2
		c0.4,0,0.9-0.1,1.2-0.3c0.7-0.4,1.3-1,1.5-1.8c0.6-2.1,13.9-52.1,15.4-58.3c0.4-1.6,0.7-4-0.6-5.7
		C193.6,12.9,192.4,12.4,191.1,12.4L191.1,12.4z"/>
</g>
<g>
	<path d="M140.5,66.3c0.3,0,0.6,0.1,1.1,0.2c2.9,1.1,3.5,1.4,3.5,1.4c1.8,0.7,2,0.9,3.8,1.6c2.1,0.9,5.5,3.4,2,8.1
		c-3.4,4.7-5.2,7.9-5.2,7.9L140,71.9C140,71.9,137.9,66.3,140.5,66.3 M140.5,63.4C140.5,63.4,140.5,63.4,140.5,63.4
		c-1.4,0-2.6,0.6-3.3,1.7c-1.6,2.3-0.5,5.8,0.2,7.8c0,0,0,0.1,0,0.1l5.7,13.6c0.4,1,1.4,1.7,2.5,1.7c0.1,0,0.1,0,0.2,0
		c1,0,2-0.6,2.5-1.5c0,0,1.7-3,5-7.6c1.8-2.5,2.4-4.9,1.8-7.2c-0.8-3-3.5-4.5-5-5.2c-0.8-0.3-1.3-0.6-1.7-0.7
		c-0.5-0.2-1.1-0.5-2-0.9c-0.6-0.3-1.9-0.8-3.7-1.5C141.8,63.6,141.2,63.4,140.5,63.4L140.5,63.4z"/>
</g>
<polygon class="st0" points="105.8,-14 105.8,10 158.3,18 105.8,25.9 105.8,49.9 173.6,18 "/>
<path class="st0" d="M153.6,83.6l80.3-28.9c0,0,2.8-1.2,1.6,1c-1.2,2.1-37.8,62.8-37.8,62.8s-2.2,3.1-5.6,0.6
	c-4.9-3.5-8.6-6.3-8.6-6.3l-10.8,6.8c0,0-2,1.9-2.2-3.9c-0.2-5.8-0.1-11.9-0.1-11.9l49.6-37.1l-58.3,30.7l-13.1-8.4
	c0,0-4.5-2.3,2.2-4.7C157.4,82.1,153.6,83.6,153.6,83.6z"/>
<path class="st0" d="M-62.2,3.3"/>
<polygon class="st0" points="188.7,7 215.1,-32.2 245.1,-4.8 224.2,-3.9 222.1,50.1 207.5,46.4 207.8,-3 "/>
<path class="st0" d="M145.3,108.8c1.8,25.6,44.8,25.2,56.4,11.2c10.5-12.7,8.5-36,8.5-36s11.9,0.1,13.5,0.2c1.9,0.1-2.9-3.9-2.9-3.9
	s-19.8-21.2-21-22.7c-3.5-4.7-6.2-1.1-6.2-1.1L166.9,83l19,1.2c2.3,5,10.8,19.6-0.1,28.5C164.6,130,145.2,108,145.3,108.8z"/>
<polygon class="st0" points="40.4,13.5 31.1,22.8 59.7,51.4 31.1,80 40.4,89.3 78.3,51.4 "/>
</svg>
