<?xml version="1.0" encoding="utf-8"?>
<!DOCTYPE svg PUBLIC "-//W3C//DTD SVG 1.1//EN" "http://www.w3.org/Graphics/SVG/1.1/DTD/svg11.dtd">
<svg version="1.1" xmlns="http://www.w3.org/2000/svg" xmlns:xlink="http://www.w3.org/1999/xlink" x="0px" y="0px" viewBox="0 0 1000 1000" enable-background="new 0 0 1000 1000" xml:space="preserve">
<metadata> Svg Vector Icons : http://www.onlinewebfonts.com/icon </metadata>
<g><g transform="translate(0.000000,511.000000) scale(0.100000,-0.100000)"><path d="M3976.3,4979.6c-181.3-51.2-309.2-128-454.3-270.8c-226.1-223.9-313.5-462.8-313.5-855.2v-166.3h-518.2c-285.8,0-825.3-6.4-1198.5-14.9l-678.2-12.8l-66.1-59.7c-57.6-51.2-66.1-72.5-66.1-168.5c0-98.1,8.5-117.3,70.4-172.7l68.2-61.9h351.9c206.9,0,351.9-8.5,351.9-19.2c0-40.5,509.7-7221.1,522.5-7351.2c23.5-270.8,123.7-437.2,332.7-552.4l115.2-64H5000h2505.8l89.6,49c138.6,72.5,234.6,166.3,294.3,287.9c53.3,110.9,55.4,145,319.9,3862.2c147.2,2062.3,266.6,3757.7,266.6,3768.4s155.7,19.2,351.9,19.2H9180l68.3,61.9c61.8,55.4,70.4,74.6,70.4,172.7c0,96-8.5,117.3-66.1,168.5l-66.1,59.7l-678.2,12.8c-373.2,8.5-912.8,14.9-1198.6,14.9h-518.2v166.3c0,394.5-100.2,661.1-326.3,870.1c-145,136.5-275.1,209-447.9,255.9C5865.8,5020.1,4121.4,5020.1,3976.3,4979.6z M5968.2,4489.1c100.2-40.5,221.8-155.7,275.1-255.9c36.3-68.2,46.9-136.5,53.3-315.6l8.5-230.3H5000H3694.8l8.5,230.3c10.7,260.2,44.8,356.2,179.1,473.4c147.2,128,128,125.8,1113.2,128C5714.4,4519,5910.7,4512.6,5968.2,4489.1z M7985.7,3128.5c0-27.7-27.7-452.1-64-944.8c-330.5-4659.8-447.9-6312.6-447.9-6355.3c0-29.9-19.2-72.5-42.7-96c-42.7-42.7-70.4-42.7-2422.7-42.7c-1563.2,0-2392.8,6.4-2418.4,21.3c-23.5,12.8-46.9,53.3-53.3,91.7c-10.7,66.1-522.5,7223.2-522.5,7323.5v49H5000h2985.7V3128.5z"/><path d="M3532.8,1671.9c-36.3-29.8-70.4-81-78.9-115.1c-14.9-70.4,322-3945.4,354-4060.6c53.3-196.2,324.2-221.8,430.8-42.6c38.4,68.2,38.4,81-132.2,2036.7c-96,1083.4-179.1,2000.4-185.5,2040.9c-6.4,40.5-38.4,100.2-72.5,134.4C3765.2,1746.5,3624.5,1750.8,3532.8,1671.9z"/><path d="M6151.6,1665.5c-34.1-34.1-66.1-93.9-72.5-134.4c-6.4-40.5-89.6-955.4-185.5-2032.4c-181.3-2075.1-179.1-2026-81.1-2113.5c21.3-21.3,78.9-40.5,130.1-46.9c123.7-12.8,219.7,49.1,249.5,157.8c32,115.2,368.9,3990.2,354,4062.7C6509.9,1718.8,6271,1782.8,6151.6,1665.5z"/></g></g>
</svg>