<?xml version="1.0" encoding="utf-8"?>
<!-- Generator: Adobe Illustrator 21.1.0, SVG Export Plug-In . SVG Version: 6.00 Build 0)  -->
<svg version="1.1"
	 id="svg3741" inkscape:version="0.48.3.1 r9886" sodipodi:docname="trash_font_awesome.svg" xmlns:cc="http://creativecommons.org/ns#" xmlns:dc="http://purl.org/dc/elements/1.1/" xmlns:inkscape="http://www.inkscape.org/namespaces/inkscape" xmlns:rdf="http://www.w3.org/1999/02/22-rdf-syntax-ns#" xmlns:sodipodi="http://sodipodi.sourceforge.net/DTD/sodipodi-0.dtd" xmlns:svg="http://www.w3.org/2000/svg"
	 xmlns="http://www.w3.org/2000/svg" xmlns:xlink="http://www.w3.org/1999/xlink" x="0px" y="0px" viewBox="0 0 612 792"
	 style="enable-background:new 0 0 612 792;" xml:space="preserve">
<style type="text/css">
	.st0{fill:#FFFFFF;}
</style>
<sodipodi:namedview  bordercolor="#666666" borderopacity="1" gridtolerance="10" guidetolerance="10" id="namedview3747" inkscape:current-layer="svg3741" inkscape:cx="896" inkscape:cy="896" inkscape:pageopacity="0" inkscape:pageshadow="2" inkscape:window-height="480" inkscape:window-maximized="0" inkscape:window-width="640" inkscape:window-x="0" inkscape:window-y="25" inkscape:zoom="0.13169643" objecttolerance="10" pagecolor="#ffffff" showgrid="false">
	</sodipodi:namedview>
<g id="g3743" transform="matrix(1,0,0,-1,197.42373,1255.0508)">
	<path id="path3745" inkscape:connector-curvature="0" class="st0" d="M44.9,922.2V725.5c0-3.2-1-5.8-3.1-7.9c-2-2-4.7-3.1-7.9-3.1
		H12.1c-3.2,0-5.8,1-7.9,3.1c-2,2-3.1,4.7-3.1,7.9v196.7c0,3.2,1,5.8,3.1,7.9c2,2,4.7,3.1,7.9,3.1h21.9c3.2,0,5.8-1,7.9-3.1
		C43.8,928,44.9,925.4,44.9,922.2z M132.3,922.2V725.5c0-3.2-1-5.8-3.1-7.9c-2-2-4.7-3.1-7.9-3.1H99.5c-3.2,0-5.8,1-7.9,3.1
		c-2,2-3.1,4.7-3.1,7.9v196.7c0,3.2,1,5.8,3.1,7.9c2,2,4.7,3.1,7.9,3.1h21.9c3.2,0,5.8-1,7.9-3.1C131.3,928,132.3,925.4,132.3,922.2
		z M219.7,922.2V725.5c0-3.2-1-5.8-3.1-7.9c-2-2-4.7-3.1-7.9-3.1h-21.9c-3.2,0-5.8,1-7.9,3.1c-2,2-3.1,4.7-3.1,7.9v196.7
		c0,3.2,1,5.8,3.1,7.9c2,2,4.7,3.1,7.9,3.1h21.9c3.2,0,5.8-1,7.9-3.1C218.7,928,219.7,925.4,219.7,922.2z M263.4,675v323.8h-306V675
		c0-5,0.8-9.6,2.4-13.8c1.6-4.2,3.2-7.3,5-9.2c1.7-1.9,2.9-2.9,3.6-2.9h284.1c0.7,0,1.9,1,3.6,2.9c1.7,1.9,3.4,5,5,9.2
		C262.6,665.3,263.4,669.9,263.4,675z M33.9,1042.4h153l-16.4,40c-1.6,2-3.5,3.3-5.8,3.8H56.5c-2.3-0.5-4.2-1.7-5.8-3.8L33.9,1042.4
		z M350.9,1031.5v-21.9c0-3.2-1-5.8-3.1-7.9c-2-2-4.7-3.1-7.9-3.1h-32.8V675c0-18.9-5.4-35.2-16.1-49
		c-10.7-13.8-23.6-20.7-38.6-20.7H-31.6c-15,0-27.9,6.7-38.6,20c-10.7,13.3-16.1,29.4-16.1,48.3v325.1h-32.8c-3.2,0-5.8,1-7.9,3.1
		c-2,2-3.1,4.7-3.1,7.9v21.9c0,3.2,1,5.8,3.1,7.9c2,2,4.7,3.1,7.9,3.1h105.5l23.9,57c3.4,8.4,9.6,15.6,18.4,21.5s17.9,8.9,27,8.9
		h109.3c9.1,0,18.1-3,27-8.9c8.9-5.9,15-13.1,18.4-21.5l23.9-57h105.5c3.2,0,5.8-1,7.9-3.1C349.8,1037.3,350.9,1034.7,350.9,1031.5z
		"/>
</g>
</svg>
